<?xml version="1.0" encoding="UTF-8"?>
<!DOCTYPE svg PUBLIC "-//W3C//DTD SVG 1.1//EN" "http://www.w3.org/Graphics/SVG/1.1/DTD/svg11.dtd">
<!-- Creator: CorelDRAW 2021 (64-Bit) -->
<svg xmlns="http://www.w3.org/2000/svg" xml:space="preserve" width="223.047mm" height="220.573mm" version="1.1" style="shape-rendering:geometricPrecision; text-rendering:geometricPrecision; image-rendering:optimizeQuality; fill-rule:evenodd; clip-rule:evenodd"
viewBox="0 0 22304.7 22057.3"
 xmlns:xlink="http://www.w3.org/1999/xlink"
 xmlns:xodm="http://www.corel.com/coreldraw/odm/2003">
 <defs>
  <style type="text/css">
   <![CDATA[
    .str2 {stroke:white;stroke-width:26.46;stroke-linecap:round;stroke-linejoin:round;stroke-miterlimit:22.9256}
    .str1 {stroke:yellow;stroke-width:26.46;stroke-linecap:round;stroke-linejoin:round;stroke-miterlimit:22.9256}
    .str0 {stroke:lime;stroke-width:26.46;stroke-linecap:round;stroke-linejoin:round;stroke-miterlimit:22.9256}
    .fil1 {fill:none}
    .fil2 {fill:lime}
    .fil0 {fill:#2196F3}
   ]]>
  </style>
   <clipPath id="id0">
    <path d="M1867.98 0.51l18554.49 0c1031.3,0 1875.1,843.79 1875.1,1875.1l0 18307.14c0,1031.31 -843.8,1875.1 -1875.1,1875.1l-18554.49 0c-1031.31,0 -1875.1,-843.79 -1875.1,-1875.1l0 -18307.14c0,-1031.31 843.79,-1875.1 1875.1,-1875.1z"/>
   </clipPath>
 </defs>
 <g id="Layer_x0020_1">
  <metadata id="CorelCorpID_0Corel-Layer"/>
  <path class="fil0" d="M1867.98 0.51l18554.49 0c1031.3,0 1875.1,843.79 1875.1,1875.1l0 18307.14c0,1031.31 -843.8,1875.1 -1875.1,1875.1l-18554.49 0c-1031.31,0 -1875.1,-843.79 -1875.1,-1875.1l0 -18307.14c0,-1031.31 843.79,-1875.1 1875.1,-1875.1z"/>
  <g style="clip-path:url(#id0)">
   <g id="_2331423897520">
    <g>
     <path id="_1" class="fil1 str0" d="M-2707.59 4494.42c4861.39,0 8802.32,3940.93 8802.32,8802.33 0,4861.39 -3940.93,8802.32 -8802.32,8802.32 -4861.4,0 -8802.33,-3940.93 -8802.33,-8802.32 0,-4861.4 3940.93,-8802.33 8802.33,-8802.33z"/>
    </g>
    <g>
     <path class="fil1 str1" d="M17123.39 -4122.38c2903.17,0 5256.67,2353.49 5256.67,5256.67 0,2903.17 -2353.5,5256.66 -5256.67,5256.66 -2903.17,0 -5256.66,-2353.49 -5256.66,-5256.66 0,-2903.18 2353.49,-5256.67 5256.66,-5256.67z"/>
    </g>
    <g>
     <path class="fil1 str2" d="M21947.15 6143.55c2903.17,0 5256.66,2353.49 5256.66,5256.67 0,2903.17 -2353.49,5256.66 -5256.66,5256.66 -2903.17,0 -5256.67,-2353.49 -5256.67,-5256.66 0,-2903.18 2353.5,-5256.67 5256.67,-5256.67z"/>
    </g>
   </g>
  </g>
  <path class="fil1" d="M1867.98 0.51l18554.49 0c1031.3,0 1875.1,843.79 1875.1,1875.1l0 18307.14c0,1031.31 -843.8,1875.1 -1875.1,1875.1l-18554.49 0c-1031.31,0 -1875.1,-843.79 -1875.1,-1875.1l0 -18307.14c0,-1031.31 843.79,-1875.1 1875.1,-1875.1z"/>
  <circle class="fil2" cx="5463.47" cy="13256.96" r="1570.16"/>
 </g>
</svg>
