<?xml version="1.0" encoding="UTF-8"?>
<!DOCTYPE svg PUBLIC "-//W3C//DTD SVG 1.1//EN" "http://www.w3.org/Graphics/SVG/1.1/DTD/svg11.dtd">
<!-- Creator: CorelDRAW 2021 (64-Bit) -->
<svg xmlns="http://www.w3.org/2000/svg" xml:space="preserve" width="210mm" height="297mm" version="1.1" style="shape-rendering:geometricPrecision; text-rendering:geometricPrecision; image-rendering:optimizeQuality; fill-rule:evenodd; clip-rule:evenodd"
viewBox="0 0 21000 29700"
 xmlns:xlink="http://www.w3.org/1999/xlink"
 xmlns:xodm="http://www.corel.com/coreldraw/odm/2003">
 <defs>
  <style type="text/css">
   <![CDATA[
    .fil1 {fill:#1C1B17;fill-rule:nonzero}
    .fil0 {fill:#77398B;fill-rule:nonzero}
   ]]>
  </style>
 </defs>
 <g id="Layer_x0020_1">
  <metadata id="CorelCorpID_0Corel-Layer"/>
  <g id="_1845136234096">
   <path class="fil0" d="M2303.02 15365.31l60.94 -416.39 208.19 -1.91c389.73,1.27 683.62,-52.68 882.93,-162.49 198.68,-109.81 298.33,-271.04 298.33,-484.31 0,-126.32 -51.41,-222.16 -154.24,-287.54 -102.83,-64.75 -255.8,-97.75 -457.65,-97.75 -270.4,0 -491.93,12.69 -665.85,37.45l61.57 -422.11c163.76,-24.75 373.23,-37.45 628.4,-37.45 345.93,0 608.08,66.01 786.45,198.04 179,132.03 268.49,326.9 269.76,585.24 -1.27,356.72 -145.99,627.76 -434.8,812.47 -289.44,184.71 -714.08,277.38 -1275.83,278.65l-208.2 -1.9zm-231.05 805.49l465.27 -2640.54 451.94 0 -465.27 2640.54 -451.94 0zm1400.25 0l-362.44 -1171.74 476.06 0 388.46 1171.74 -502.08 0z"/>
   <path class="fil0" d="M4092.81 16170.8l464.64 -2640.54 451.93 0 -464.63 2640.54 -451.94 0zm0 0l74.27 -412.58 1783.63 0 -72.99 412.58 -1784.91 0zm197.41 -1115.88l72.36 -412.59 1450.39 0 -72.36 412.59 -1450.39 0zm194.86 -1112.07l72.37 -412.59 1785.53 0 -72.36 412.59 -1785.54 0z"/>
   <path class="fil0" d="M7162.25 16208.25c-224.7,0 -411.95,-37.45 -562.38,-112.98 -151.07,-74.9 -264.06,-187.25 -339.59,-336.42 -75.54,-149.16 -113.62,-336.41 -113.62,-560.48 -1.27,-251.99 34.91,-481.77 109.18,-689.97 73.63,-208.19 177.72,-387.83 312.29,-539.53 134.57,-151.07 294.52,-268.5 479.87,-351.01 185.34,-83.16 389.1,-125.05 610.62,-125.05 285,0 506.53,91.4 663.94,273.58l-276.74 360.53c-124.41,-144.72 -271.04,-217.08 -441.15,-215.81 -189.79,-1.27 -359.27,53.95 -508.43,165.03 -149.17,111.08 -266.6,262.15 -352.29,453.84 -85.69,191.06 -128.21,410.05 -128.21,655.06 -1.27,135.2 22.21,247.55 70.45,337.69 48.24,90.13 119.97,157.41 214.55,201.84 95.21,44.44 213.91,66.02 356.09,64.75 212,0 427.82,-36.18 647.44,-109.18l26.02 401.16c-251.99,84.42 -507.79,126.95 -768.04,126.95z"/>
   <path class="fil0" d="M8667.68 16170.8l464.63 -2640.54 451.94 0 -464.63 2640.54 -451.94 0zm-344.03 -2227.95l72.36 -412.59 1928.35 0 -72.36 412.59 -1928.35 0z"/>
   <path class="fil0" d="M10042.98 16170.8l464.64 -2640.54 451.93 0 -464.63 2640.54 -451.94 0zm0 0l74.27 -412.58 2393.63 0 -72.99 412.58 -2394.91 0zm197.41 -1115.88l72.36 -412.59 2260.39 0 -72.36 412.59 -2260.39 0zm194.86 -1112.07l72.37 -412.59 2375.53 0 -72.36 412.59 -2375.54 0z"/>
   <path class="fil0" d="M13206.55 15185.04l150.43 -481.77 22.22 0 439.24 -1173.01 280.56 0 -81.88 468.44 -118.7 0 -455.75 1186.34 -236.12 0zm-987.67 985.76l461.46 -2640.54 444.33 0 -465.27 2640.54 -440.52 0zm905.79 -983.85l-24.12 -1188.25 -119.34 0 81.89 -468.44 251.35 0 34.92 1173.01 15.23 0 -57.76 481.77 -182.17 1.91zm448.13 983.85l464.63 -2640.54 435.43 0 -465.26 2640.54 -434.8 0z"/>
   <path class="fil1" d="M14514.65 15259.8l120.19 -683.02 116.9 0 -120.19 683.02 -116.9 0zm-88.99 -576.3l18.72 -106.72 498.8 0 -18.71 106.72 -498.81 0zm834.57 576.3l120.35 -683.02 116.91 0 -120.35 683.02 -116.91 0zm-335.27 0l120.35 -683.02 116.9 0 -120.35 683.02 -116.9 0zm81.44 -286.67l15.76 -106.73 395.86 0 -15.76 106.73 -395.86 0zm505.54 286.67l120.19 -683.02 116.9 0 -120.19 683.02 -116.9 0zm0 0l19.21 -106.72 461.37 0 -18.88 106.72 -461.7 0zm51.06 -288.64l18.72 -106.73 375.17 0 -18.72 106.73 -375.17 0zm50.41 -287.66l18.72 -106.72 461.86 0 -18.72 106.72 -461.86 0zm525.9 367.95l15.76 -107.71 53.85 -0.5c100.81,0.33 176.83,-13.62 228.39,-42.03 51.39,-28.4 77.17,-70.11 77.17,-125.27 0,-32.68 -13.3,-57.47 -39.9,-74.38 -26.6,-16.75 -66.17,-25.29 -118.38,-25.29 -69.94,0 -127.25,3.29 -172.23,9.69l15.92 -109.18c42.36,-6.41 96.55,-9.69 162.55,-9.69 89.48,0 157.29,17.08 203.43,51.23 46.3,34.15 69.45,84.55 69.78,151.38 -0.33,92.27 -37.77,162.38 -112.47,210.16 -74.87,47.78 -184.71,71.75 -330.02,72.08l-53.85 -0.49zm-59.77 208.35l120.35 -683.02 116.9 0 -120.35 683.02 -116.9 0zm362.2 0l-93.75 -303.09 123.14 0 100.48 303.09 -129.87 0zm169.45 0l311.3 -683.52 156.8 0c7.72,41.71 14.78,85.38 21.34,131.35 6.57,45.81 12.81,92.44 18.56,139.89 5.74,47.45 11,94.9 15.59,142.35 4.6,47.62 8.71,93.92 11.99,139.4 3.45,45.32 6.08,88.83 8.05,130.53l-118.88 0c-0.65,-33 -2.13,-68.3 -4.27,-105.9 -2.29,-37.44 -4.92,-75.86 -8.04,-115.1 -2.96,-39.24 -6.4,-78.81 -10.34,-118.38 -3.78,-39.57 -7.72,-78.15 -11.66,-115.59 -4.11,-37.59 -8.21,-73.06 -12.32,-106.39l-12.97 0 -244.47 561.36 -120.68 0zm125.11 -144.32l17.73 -106.72 346.44 0 -17.9 106.72 -346.27 0zm507.51 144.32l120.19 -683.02 116.9 0 -120.19 683.02 -116.9 0zm59.6 -164.52l15.93 -109.18 53.85 0c99.66,0 175.19,-16.09 226.58,-48.27 51.23,-32.35 77,-79.8 77,-142.68 0,-38.75 -14.12,-68.31 -42.19,-88.5 -28.08,-20.2 -69.29,-30.38 -123.8,-30.38 -66.66,0 -120.84,3.29 -162.55,9.69l15.77 -109.18c38.58,-6.41 88.82,-9.69 151.05,-9.69 93.09,0 163.37,18.39 211.14,54.84 47.78,36.61 71.76,90.3 71.76,161.23 0,102.29 -37.28,179.79 -111.65,232.82 -74.38,52.87 -184.06,79.3 -329.04,79.3l-53.85 0zm674.98 164.52l50.08 -285.69 117.39 0 -50.07 285.69 -117.4 0zm45.15 -209.67l-149.08 -462.85 119.37 -15.26 99.99 358.75 8.7 0c33.99,-35.63 64.03,-70.77 89.97,-105.58 25.95,-34.8 49.1,-72.08 69.29,-112.14 20.2,-39.89 38.26,-85.38 54.35,-136.27l123.14 0c-21.18,67.97 -47.29,129.71 -78.16,185.2 -31.03,55.5 -67.15,107.22 -108.52,155.32 -41.38,48.11 -88.34,95.89 -140.88,143.34l-88.17 -10.51z"/>
   <path class="fil1" d="M14304.16 16106.43l120.19 -683.02 116.9 0 -120.19 683.02 -116.9 0zm59.6 -164.52l15.93 -109.18 53.85 0c99.66,0 175.19,-16.09 226.58,-48.27 51.23,-32.35 77,-79.8 77,-142.68 0,-38.75 -14.12,-68.31 -42.19,-88.5 -28.08,-20.2 -69.29,-30.38 -123.8,-30.38 -66.66,0 -120.84,3.29 -162.55,9.69l15.77 -109.18c38.58,-6.41 88.82,-9.69 151.05,-9.69 93.09,0 163.37,18.39 211.14,54.84 47.78,36.61 71.76,90.3 71.76,161.23 0,102.29 -37.28,179.79 -111.65,232.82 -74.38,52.87 -184.06,79.3 -329.04,79.3l-53.85 0zm517.69 164.52l120.19 -683.02 116.9 0 -120.19 683.02 -116.9 0zm0 0l18.72 -106.72 461.86 0 -18.88 106.72 -461.7 0zm521.96 0l311.3 -683.52 156.8 0c7.72,41.71 14.78,85.38 21.34,131.35 6.57,45.81 12.81,92.44 18.56,139.89 5.74,47.45 11,94.9 15.59,142.35 4.6,47.62 8.71,93.92 11.99,139.4 3.45,45.32 6.08,88.83 8.05,130.53l-118.88 0c-0.65,-33 -2.13,-68.3 -4.27,-105.9 -2.29,-37.44 -4.92,-75.86 -8.04,-115.1 -2.96,-39.24 -6.4,-78.81 -10.34,-118.38 -3.78,-39.57 -7.72,-78.15 -11.66,-115.59 -4.11,-37.59 -8.21,-73.06 -12.32,-106.39l-12.97 0 -244.47 561.36 -120.68 0zm125.11 -144.32l17.73 -106.72 346.44 0 -17.9 106.72 -346.27 0zm664.8 144.32l120.19 -683.02 116.9 0 -120.19 683.02 -116.9 0zm-88.99 -576.3l18.72 -106.72 498.8 0 -18.71 106.72 -498.81 0zm518.68 576.3l120.18 -683.02 116.9 0 -120.18 683.02 -116.9 0zm74.54 -259.75l19.21 -107.21 345.78 0 -18.72 107.21 -346.27 0zm26.92 -316.55l18.72 -106.72 461.86 0 -18.88 106.72 -461.7 0zm685.5 585.99c-65.68,0 -117.07,-21.68 -154.01,-64.69 -36.78,-43.18 -55.17,-103.44 -55.17,-180.77 0,-95.56 12.81,-177.49 38.42,-245.79 25.61,-68.31 62.72,-120.52 111.15,-156.8 48.44,-36.13 106.56,-54.35 174.54,-54.35 64.85,0 115.42,21.18 152.04,63.38 36.61,42.03 55,100.97 55.33,176.66 -0.33,96.55 -13.3,179.3 -38.75,248.42 -25.45,69.12 -62.23,122.16 -110.34,158.77 -48.1,36.78 -105.9,55.17 -173.21,55.17zm15.43 -108.37c39.08,0.33 72.41,-13.13 99.99,-40.39 27.58,-27.25 48.76,-66.33 63.54,-117.56 14.78,-51.22 22.17,-112.47 22.17,-184.05 0,-45.48 -8.87,-80.95 -26.27,-106.23 -17.57,-25.29 -42.04,-37.93 -73.89,-37.6 -39.4,-0.33 -73.39,12.97 -101.63,39.73 -28.41,26.77 -50.24,65.35 -65.18,115.76 -15.11,50.24 -22.5,110.82 -22.17,181.26 -0.33,47.12 8.7,83.9 26.93,110.17 18.22,26.27 43.67,39.24 76.51,38.91zm392.58 -109.67l15.76 -107.71 53.85 -0.5c100.81,0.33 176.83,-13.62 228.39,-42.03 51.39,-28.4 77.17,-70.11 77.17,-125.27 0,-32.68 -13.3,-57.47 -39.9,-74.38 -26.6,-16.75 -66.17,-25.29 -118.38,-25.29 -69.94,0 -127.25,3.29 -172.23,9.69l15.92 -109.18c42.36,-6.41 96.55,-9.69 162.55,-9.69 89.48,0 157.29,17.08 203.43,51.23 46.3,34.15 69.45,84.55 69.78,151.38 -0.33,92.27 -37.77,162.38 -112.47,210.16 -74.87,47.78 -184.71,71.75 -330.02,72.08l-53.85 -0.49zm-59.77 208.35l120.35 -683.02 116.9 0 -120.35 683.02 -116.9 0zm362.2 0l-93.75 -303.09 123.14 0 100.48 303.09 -129.87 0zm465.81 -254.98l38.91 -124.62 5.75 0 113.62 -303.42 72.57 0 -21.18 121.17 -30.71 0 -117.88 306.87 -61.08 0zm-255.48 254.98l119.37 -683.02 114.93 0 -120.35 683.02 -113.95 0zm234.3 -254.49l-6.24 -307.36 -30.87 0 21.18 -121.17 65.02 0 9.03 303.42 3.94 0 -14.94 124.62 -47.12 0.49zm115.91 254.49l120.19 -683.02 112.63 0 -120.35 683.02 -112.47 0z"/>
  </g>
 </g>
</svg>
