<?xml version="1.0" encoding="UTF-8"?>
<!DOCTYPE svg PUBLIC "-//W3C//DTD SVG 1.1//EN" "http://www.w3.org/Graphics/SVG/1.1/DTD/svg11.dtd">
<!-- Creator: CorelDRAW 2021 (64-Bit) -->
<svg xmlns="http://www.w3.org/2000/svg" xml:space="preserve" width="0.162244in" height="0.148921in" version="1.1" style="shape-rendering:geometricPrecision; text-rendering:geometricPrecision; image-rendering:optimizeQuality; fill-rule:evenodd; clip-rule:evenodd"
viewBox="0 0 15.04 13.81"
 xmlns:xlink="http://www.w3.org/1999/xlink"
 xmlns:xodm="http://www.corel.com/coreldraw/odm/2003">
 <defs>
  <style type="text/css">
   <![CDATA[
    .fil0 {fill:#77398B;fill-rule:nonzero}
   ]]>
  </style>
 </defs>
 <g id="Layer_x0020_1">
  <metadata id="CorelCorpID_0Corel-Layer"/>
  <path class="fil0" d="M7.19 3.24c-0.13,-0.21 -2.25,-3.6 -4.32,-2.29 -0.42,0.26 -0.81,0.59 -1.14,0.97 -0.57,0.65 -0.97,1.46 -1.07,2.37 -0.09,0.92 0.13,1.95 0.82,3.04 0.42,0.67 1.02,1.37 1.83,2.07l4.19 3.66c1.09,-0.92 6.04,-5.17 6.78,-7.39 0.27,-0.8 0.1,-1.9 -0.4,-2.82 -0.28,-0.5 -0.65,-0.95 -1.12,-1.25 -0.45,-0.3 -0.99,-0.46 -1.61,-0.41 -0.97,0.08 -2.13,0.68 -3.44,2.11 -0.12,0.13 -0.32,0.14 -0.45,0.02 -0.03,-0.02 -0.05,-0.05 -0.06,-0.08zm-4.66 -2.84c2.22,-1.4 4.31,1.19 4.99,2.17 1.32,-1.35 2.54,-1.93 3.58,-2.02 0.77,-0.06 1.44,0.14 2.01,0.51 0.56,0.36 1.01,0.89 1.33,1.48 0.59,1.07 0.77,2.37 0.45,3.33 -0.89,2.67 -7.16,7.84 -7.18,7.86 -0.12,0.1 -0.3,0.1 -0.42,-0l-4.4 -3.84c-0.86,-0.75 -1.49,-1.49 -1.95,-2.21 -0.77,-1.22 -1.02,-2.39 -0.91,-3.44 0.11,-1.06 0.57,-1.99 1.22,-2.73 0.38,-0.43 0.82,-0.8 1.28,-1.1z"/>
 </g>
</svg>
