<?xml version="1.0" encoding="UTF-8"?>
<!DOCTYPE svg PUBLIC "-//W3C//DTD SVG 1.1//EN" "http://www.w3.org/Graphics/SVG/1.1/DTD/svg11.dtd">
<!-- Creator: CorelDRAW 2021 (64-Bit) -->
<svg xmlns="http://www.w3.org/2000/svg" xml:space="preserve" width="0.168189in" height="0.175642in" version="1.1" style="shape-rendering:geometricPrecision; text-rendering:geometricPrecision; image-rendering:optimizeQuality; fill-rule:evenodd; clip-rule:evenodd"
viewBox="0 0 11.67 12.18"
 xmlns:xlink="http://www.w3.org/1999/xlink"
 xmlns:xodm="http://www.corel.com/coreldraw/odm/2003">
 <defs>
  <style type="text/css">
   <![CDATA[
    .fil0 {fill:#9B7FF1;fill-rule:nonzero}
   ]]>
  </style>
 </defs>
 <g id="Layer_x0020_1">
  <metadata id="CorelCorpID_0Corel-Layer"/>
  <path class="fil0" d="M4.53 0c1.25,0 2.38,0.51 3.2,1.33 0.82,0.82 1.33,1.95 1.33,3.2 0,1.22 -0.48,2.33 -1.27,3.15l3.82 4.1c0.09,0.1 0.08,0.25 -0.01,0.34 -0.1,0.09 -0.25,0.08 -0.34,-0.01l-3.82 -4.1c-0.79,0.66 -1.8,1.05 -2.9,1.05 -1.25,0 -2.38,-0.51 -3.2,-1.33 -0.82,-0.82 -1.33,-1.95 -1.33,-3.2 0,-1.25 0.51,-2.38 1.33,-3.2 0.82,-0.82 1.95,-1.33 3.2,-1.33zm2.86 1.67c-0.73,-0.73 -1.74,-1.18 -2.86,-1.18 -1.12,0 -2.13,0.45 -2.86,1.19 -0.73,0.73 -1.19,1.74 -1.19,2.86 0,1.12 0.45,2.13 1.18,2.86 0.73,0.73 1.74,1.19 2.86,1.19 1.12,0 2.13,-0.45 2.86,-1.19 0.73,-0.73 1.19,-1.74 1.19,-2.86 0,-1.12 -0.45,-2.13 -1.18,-2.86z"/>
 </g>
</svg>
